<svg xmlns="http://www.w3.org/2000/svg" xmlns:xlink="http://www.w3.org/1999/xlink" viewBox="0,0,256,256" width="32px" height="32px" fill-rule="nonzero"><g fill-opacity="0.72157" fill="#000000" fill-rule="nonzero" stroke="none" stroke-width="1" stroke-linecap="butt" stroke-linejoin="miter" stroke-miterlimit="10" stroke-dasharray="" stroke-dashoffset="0" font-family="none" font-weight="none" font-size="none" text-anchor="none" style="mix-blend-mode: normal"><g transform="scale(10.66667,10.66667)"><path d="M2.5,24h18c1.378,0 2.5,-1.122 2.5,-2.5v-18c0,-1.378 -1.122,-2.5 -2.5,-2.5h-18c-1.378,0 -2.5,1.122 -2.5,2.5v18c0,1.378 1.122,2.5 2.5,2.5zM1,3.5c0,-0.827 0.673,-1.5 1.5,-1.5h18c0.827,0 1.5,0.673 1.5,1.5v18c0,0.827 -0.673,1.5 -1.5,1.5h-18c-0.827,0 -1.5,-0.673 -1.5,-1.5z"></path><path d="M5.5,20h3c0.276,0 0.5,-0.224 0.5,-0.5v-5h5v5c0,0.276 0.224,0.5 0.5,0.5h3c0.276,0 0.5,-0.224 0.5,-0.5v-14c0,-0.276 -0.224,-0.5 -0.5,-0.5h-3c-0.276,0 -0.5,0.224 -0.5,0.5v5h-5v-5c0,-0.276 -0.224,-0.5 -0.5,-0.5h-3c-0.276,0 -0.5,0.224 -0.5,0.5v14c0,0.276 0.224,0.5 0.5,0.5zM6,6h2v5c0,0.276 0.224,0.5 0.5,0.5h6c0.276,0 0.5,-0.224 0.5,-0.5v-5h2v13h-2v-5c0,-0.276 -0.224,-0.5 -0.5,-0.5h-6c-0.276,0 -0.5,0.224 -0.5,0.5v5h-2z"></path></g></g></svg>